<?xml version="1.0" encoding="utf-8"?>
<!-- Generator: Adobe Illustrator 16.0.0, SVG Export Plug-In . SVG Version: 6.00 Build 0)  -->
<!DOCTYPE svg PUBLIC "-//W3C//DTD SVG 1.1//EN" "http://www.w3.org/Graphics/SVG/1.1/DTD/svg11.dtd">
<svg version="1.1" id="Layer_1" xmlns="http://www.w3.org/2000/svg" xmlns:xlink="http://www.w3.org/1999/xlink" x="0px" y="0px"
	 width="128px" height="128px" viewBox="0 0 128 128" enable-background="new 0 0 128 128" xml:space="preserve">
<g>
	<g>
		<path fill="#282D33" d="M118.073,82.54l-0.053-4.009c2.302-0.03,5.565-2.168,5.562-4.125V37.079
			c-0.002-2.61-1.973-5.64-4.137-6.356c-10.242-3.316-21.08-3.317-31.331,0.004c-2.15,0.711-4.123,3.743-4.126,6.354v37.321h-4.01
			V37.079c0.005-4.349,3.096-8.907,6.888-10.162c11.072-3.586,22.765-3.586,33.826-0.004c3.808,1.26,6.896,5.818,6.899,10.166
			v37.325C127.602,79.217,121.869,82.49,118.073,82.54z"/>
	</g>
	<g>
		<polygon fill="#282D33" points="41.002,82.516 39.687,78.728 48.997,75.493 39.343,45.058 43.164,43.846 53.998,78.001 		"/>
	</g>
	<g>
		<path fill="#282D33" d="M65.302,82.934c-4.933,0-8.947-4.037-8.947-9.001s4.014-9.002,8.947-9.002
			c4.935,0,8.948,4.038,8.948,9.002S70.236,82.934,65.302,82.934z M65.302,68.94c-2.723,0-4.938,2.239-4.938,4.992
			c0,2.752,2.215,4.992,4.938,4.992c2.724,0,4.939-2.24,4.939-4.992C70.241,71.18,68.025,68.94,65.302,68.94z"/>
	</g>
	<g>
		<path fill="#282D33" d="M76.253,111.095H53.131V86.193h23.122V111.095z M57.14,107.085h15.104V90.203H57.14V107.085z"/>
	</g>
	<g>
		
			<rect x="44.336" y="80.897" transform="matrix(0.6056 0.7957 -0.7957 0.6056 86.0773 -7.8851)" fill="#282D33" width="13.316" height="4.008"/>
	</g>
	<g>
		
			<rect x="76.386" y="76.244" transform="matrix(0.7959 0.6054 -0.6054 0.7959 66.1919 -30.54)" fill="#282D33" width="4.01" height="13.314"/>
	</g>
	<g>
		<g>
			<rect x="57.198" y="108.682" fill="#282D33" width="4.01" height="17.613"/>
		</g>
		<g>
			<rect x="68.178" y="108.682" fill="#282D33" width="4.01" height="17.613"/>
		</g>
	</g>
	<g>
		<polygon fill="#282D33" points="31.221,128 17.375,128 15.072,106.388 19.059,105.963 20.98,123.99 27.616,123.99 29.539,105.962 
			33.526,106.389 		"/>
	</g>
	<g>
		<rect x="101.779" y="86.121" fill="#282D33" width="4.01" height="39.876"/>
	</g>
	<g>
		<g>
			<polygon fill="#282D33" points="118.48,125.544 89.094,125.544 89.094,42.81 93.104,42.81 93.104,121.535 114.472,121.535 
				114.472,42.81 118.48,42.81 			"/>
		</g>
	</g>
	<g>
		<rect x="101.779" y="86.121" fill="#282D33" width="4.01" height="39.876"/>
	</g>
	<g>
		<path fill="#282D33" d="M5.79,78.736c-0.776-2.609-1.636-5.473-2.5-8.345c-0.936-3.111-1.874-6.234-2.713-9.062l-0.169-0.57
			l0.169-0.57c1.614-5.438,3.229-10.875,4.848-16.31c1.093-3.5,4.154-8.114,7.209-9.51c4.29-1.884,7.987-2.757,11.662-2.76
			c3.683,0.003,7.379,0.876,11.645,2.748c3.08,1.402,6.142,6.018,7.227,9.498l-3.827,1.194c-0.954-3.059-3.536-6.348-5.036-7.031
			c-3.716-1.63-6.902-2.396-10-2.399c-3.107,0.002-6.292,0.769-10.03,2.41c-1.476,0.675-4.06,3.965-5.014,7.021
			c-1.555,5.22-3.113,10.464-4.669,15.71c0.794,2.669,1.668,5.579,2.539,8.479c0.864,2.875,1.726,5.742,2.503,8.354L5.79,78.736z"/>
	</g>
	<g>
		<g>
			<polygon fill="#282D33" points="47.105,101.975 1.495,101.975 12.805,46.1 16.735,46.896 6.397,97.965 42.204,97.965 
				31.868,46.896 35.798,46.1 			"/>
		</g>
	</g>
	<g>
		<path fill="#282D33" d="M103.788,28.042c-7.682,0-13.931-6.29-13.931-14.021C89.857,6.29,96.106,0,103.788,0
			c7.68,0,13.928,6.29,13.928,14.021C117.716,21.752,111.468,28.042,103.788,28.042z M103.788,4.009
			c-5.471,0-9.922,4.491-9.922,10.011s4.451,10.012,9.922,10.012c5.469,0,9.919-4.492,9.919-10.012S109.257,4.009,103.788,4.009z"/>
	</g>
	<g>
		<path fill="#282D33" d="M24.301,34.801c-7.344,0-13.318-6.014-13.318-13.406c0-7.392,5.974-13.406,13.318-13.406
			s13.318,6.014,13.318,13.406C37.619,28.788,31.645,34.801,24.301,34.801z M24.301,11.998c-5.133,0-9.309,4.216-9.309,9.397
			c0,5.182,4.176,9.397,9.309,9.397c5.133,0,9.309-4.215,9.309-9.397C33.61,16.214,29.434,11.998,24.301,11.998z"/>
	</g>
</g>
</svg>
