<?xml version="1.0" encoding="UTF-8"?>
<!DOCTYPE svg PUBLIC "-//W3C//DTD SVG 1.1//EN" "http://www.w3.org/Graphics/SVG/1.1/DTD/svg11.dtd">
<!-- Creator: CorelDRAW -->
<svg xmlns="http://www.w3.org/2000/svg" xml:space="preserve" width="6.82666in" height="6.82666in" style="shape-rendering:geometricPrecision; text-rendering:geometricPrecision; image-rendering:optimizeQuality; fill-rule:evenodd; clip-rule:evenodd"
viewBox="0 0 6.82666 6.82666"
 xmlns:xlink="http://www.w3.org/1999/xlink">
 <defs>
  <style type="text/css">
   <![CDATA[
    .fil35 {fill:#5D7056}
    .fil31 {fill:#8ED16F}
    .fil1 {fill:#94D477}
    .fil7 {fill:#97D47C}
    .fil16 {fill:#9CD681}
    .fil24 {fill:#A1D988}
    .fil8 {fill:#A3D989}
    .fil17 {fill:#A7DB8F}
    .fil15 {fill:#A9DC92}
    .fil0 {fill:#AAD496}
    .fil9 {fill:#ABDC94}
    .fil3 {fill:#B0DE9B}
    .fil13 {fill:#B3E09E}
    .fil32 {fill:#B5E1A0}
    .fil6 {fill:#B5E1A1}
    .fil2 {fill:#B6E1A3}
    .fil33 {fill:#B8E3A6}
    .fil21 {fill:#BAE3A7}
    .fil14 {fill:#BDE4AC}
    .fil11 {fill:#BEE4AD}
    .fil10 {fill:#C4E6B4}
    .fil19 {fill:#C5E7B5}
    .fil12 {fill:#C5E8B6}
    .fil5 {fill:#C7E8B8}
    .fil18 {fill:#C9E9BB}
    .fil29 {fill:#CCEABE}
    .fil4 {fill:#CCEBBF}
    .fil20 {fill:#CFECC2}
    .fil22 {fill:#D0ECC4}
    .fil28 {fill:#D1ECC5}
    .fil23 {fill:#D2ECC5}
    .fil26 {fill:#D4EDC9}
    .fil25 {fill:#D9EFCE}
    .fil27 {fill:#DBF0D1}
    .fil30 {fill:#DFF3D7}
    .fil34 {fill:#5D7056;fill-rule:nonzero}
   ]]>
  </style>
 </defs>
 <g id="Layer_x0020_1">
  <metadata id="CorelCorpID_0Corel-Layer"/>
  <g id="_426226488">
   <path id="_426229824" class="fil0" d="M3.41333 0.103323c1.82806,0 3.31001,1.48194 3.31001,3.31001 0,1.82806 -1.48195,3.31001 -3.31001,3.31001 -1.82806,0 -3.31001,-1.48195 -3.31001,-3.31001 0,-1.82806 1.48194,-3.31001 3.31001,-3.31001z"/>
   <g>
    <path id="_426230400" class="fil1" d="M0.84815 1.34934l-0.00884252 -0.0168189c0.00753937,-0.00931496 0.0149882,-0.0187087 0.0226299,-0.0279409l-0.0137874 0.0447598z"/>
    <path id="_426230256" class="fil2" d="M0.103453 3.42366l0.0734567 0.129008 -0.056126 0.202343c-0.0111732,-0.108965 -0.0169882,-0.219512 -0.0173307,-0.33135z"/>
    <path id="_426229920" class="fil3" d="M0.176909 3.55267l-0.0734567 -0.129008c-1.1811e-005,-0.00345276 -0.000129921,-0.00687402 -0.000129921,-0.0103268 0,-0.0520512 0.00135433,-0.103776 0.00373228,-0.15524l0.0698543 0.294575z"/>
    <path id="_426230472" class="fil4" d="M1.18749 5.86321l0.776169 -0.14402 -0.0895354 0.62498c-0.249311,-0.131209 -0.479969,-0.293087 -0.686634,-0.480961z"/>
    <path id="_426229752" class="fil5" d="M0.877673 5.54068l0.5695 -2.23289 0.516488 2.41141 -0.776169 0.14402c-0.11039,-0.100366 -0.213819,-0.208224 -0.309819,-0.322531z"/>
    <path id="_426230448" class="fil6" d="M1.44717 3.30779l-1.24756 -0.689248c0.019374,-0.0785906 0.0415472,-0.156067 0.0664213,-0.232331l1.25347 -0.278012 -0.0723386 1.19959z"/>
    <path id="_426229512" class="fil7" d="M0.839307 1.33252l0.00884252 0.0168189 -0.0253898 0.00372441c0.00548031,-0.00687795 0.0110157,-0.0137087 0.0165472,-0.0205433z"/>
    <path id="_426229176" class="fil8" d="M0.82276 1.35307l0.0253898 -0.00372441 -0.185134 0.22185c0.0503071,-0.0749488 0.103646,-0.147681 0.159744,-0.218126z"/>
    <path id="_426229080" class="fil9" d="M0.663016 1.57119l0.185134 -0.22185 0.671362 0.758854 -1.25347 0.278012c0.0951063,-0.291531 0.229413,-0.565339 0.396976,-0.815016z"/>
    <path id="_426229272" class="fil2" d="M0.176909 3.55267l0 0 -0.0698543 -0.294575c0.0101339,-0.219457 0.0417205,-0.433287 0.092563,-0.639551l1.24756 0.689248 -1.27026 0.244878z"/>
    <path id="_426229248" class="fil10" d="M0.206878 4.23787l1.2403 -0.930087 -0.5695 2.23289c-0.313378,-0.373138 -0.546059,-0.816303 -0.670795,-1.30281z"/>
    <path id="_426229224" class="fil11" d="M0.120783 3.75501l0.056126 -0.202343 1.27026 -0.244878 -1.2403 0.930087c-0.0401969,-0.156768 -0.069189,-0.318028 -0.0860945,-0.482866z"/>
    <polygon id="_426229632" class="fil12" points="2.78981,4.64194 1.44717,3.30779 2.33531,3.05072 "/>
    <polygon id="_426229416" class="fil13" points="2.33531,3.05072 1.51951,2.1082 2.08763,1.12896 "/>
    <polygon id="_426228960" class="fil14" points="1.44717,3.30779 1.51951,2.1082 2.33531,3.05072 "/>
    <path id="_426229008" class="fil15" d="M4.66962 2.62229l-0.661004 -1.18728 1.14086 -0.840126c0.0476457,0.0294134 0.0944646,0.0600236 0.140469,0.0917402l-0.620323 1.93567z"/>
    <path id="_426228336" class="fil16" d="M0.84815 1.34934l0.0137874 -0.0447598c0.166339,-0.201031 0.356004,-0.382031 0.564807,-0.538957l0.660882 0.363331 -1.23948 0.220386z"/>
    <polygon id="_426228816" class="fil17" points="1.51951,2.1082 1.51951,2.1082 0.84815,1.34934 2.08763,1.12896 "/>
    <path id="_426228240" class="fil7" d="M2.08763 1.12896l-0.660882 -0.363331c0.201016,-0.151067 0.419858,-0.279622 0.652697,-0.382287l0.00818504 0.745618z"/>
    <polygon id="_426228648" class="fil18" points="1.96366,5.71919 1.96366,5.71919 1.44717,3.30779 2.78981,4.64194 "/>
    <polygon id="_426228432" class="fil19" points="4.34948,4.3237 3.48189,3.73626 4.66962,2.62229 "/>
    <path id="_426228624" class="fil20" d="M1.87413 6.34417l0.0895354 -0.62498 0.602197 0.894457c-0.242602,-0.0641299 -0.474299,-0.155047 -0.691732,-0.269476z"/>
    <polygon id="_426228504" class="fil21" points="3.48189,3.73626 4.00862,1.435 4.66962,2.62229 "/>
    <path id="_426228528" class="fil7" d="M2.08763 1.12896l0 0 -0.00818504 -0.745618c0.115524,-0.0509331 0.234445,-0.095563 0.356433,-0.13324l1.08729 0.230035 -1.43554 0.648823z"/>
    <polygon id="_426228720" class="fil5" points="2.78981,4.64194 2.78981,4.64194 2.33531,3.05072 3.48189,3.73626 "/>
    <polygon id="_426228768" class="fil22" points="3.62645,6.66159 1.96366,5.71919 2.78981,4.64194 "/>
    <path id="_426228456" class="fil23" d="M2.56586 6.61365l-0.602197 -0.894457 1.66279 0.942402 -0.117575 0.0602756c-0.031748,0.000901575 -0.0635827,0.0014685 -0.0955472,0.0014685 -0.292965,0 -0.576965,-0.0382402 -0.847472,-0.109689z"/>
    <polygon id="_426227520" class="fil14" points="3.48189,3.73626 3.48189,3.73626 2.33531,3.05072 4.00862,1.435 "/>
    <polygon id="_426227592" class="fil3" points="2.33531,3.05072 2.33531,3.05072 2.08763,1.12896 4.00862,1.435 "/>
    <polygon id="_426228048" class="fil24" points="4.00862,1.435 2.08763,1.12896 3.52316,0.480134 "/>
    <path id="_426227424" class="fil25" d="M3.50888 6.72187l0.117575 -0.0602756 0.0260669 0.0530709c-0.0476142,0.00339764 -0.0954921,0.00583858 -0.143642,0.00720472z"/>
    <polygon id="_426227640" class="fil26" points="3.62645,6.66159 3.62645,6.66159 2.78981,4.64194 4.25655,6.29437 "/>
    <polygon id="_426227976" class="fil22" points="4.25655,6.29437 4.25655,6.29437 2.78981,4.64194 4.34948,4.3237 "/>
    <path id="_426227784" class="fil27" d="M3.65252 6.71467l-0.0260669 -0.0530709 0.630094 -0.367224 -0.0383661 0.330217c-0.183008,0.0457205 -0.372012,0.076248 -0.565661,0.0900787z"/>
    <polygon id="_426228144" class="fil18" points="2.78981,4.64194 3.48189,3.73626 4.34948,4.3237 "/>
    <path id="_426228000" class="fil16" d="M4.00862 1.435l0 0 -0.485457 -0.95487 1.35441 -0.0358898c0.0931969,0.0460512 0.183917,0.0963228 0.271902,0.150634l-1.14086 0.840126z"/>
    <polygon id="_426227448" class="fil23" points="4.25655,6.29437 4.34948,4.3237 5.32031,4.96022 "/>
    <path id="_426226872" class="fil1" d="M3.52316 0.480134l0 0 -1.08729 -0.230035c0.0435984,-0.0134567 0.087622,-0.0259409 0.131972,-0.037626l2.17686 0.169772c0.0448189,0.0197165 0.0891142,0.0403819 0.132866,0.062l-1.35441 0.0358898z"/>
    <path id="_426227088" class="fil28" d="M5.77472 5.73249l-0.454413 -0.772272 0.67124 -0.734358 0.0965157 1.13731c-0.0954449,0.130685 -0.200193,0.254126 -0.313343,0.369323z"/>
    <polygon id="_426226776" class="fil29" points="5.32031,4.96022 5.32031,4.96022 4.34948,4.3237 5.99155,4.22586 "/>
    <path id="_426226752" class="fil2" d="M5.99155 4.22586l-1.32193 -1.60357 1.41272 -1.16665c0.053563,0.0729016 0.104232,0.148051 0.151799,0.225327l-0.242591 2.54489z"/>
    <path id="_426227328" class="fil17" d="M4.66962 2.62229l0.620323 -1.93567c0.305122,0.210398 0.573138,0.470661 0.792398,0.769024l-1.41272 1.16665z"/>
    <path id="_426226680" class="fil25" d="M4.96162 6.33938l-0.705071 -0.0450079 1.06376 -1.33415 0.454413 0.772272c-0.237303,0.241559 -0.511323,0.44687 -0.813106,0.60689z"/>
    <polygon id="_426227040" class="fil10" points="4.34948,4.3237 4.66962,2.62229 5.99155,4.22586 "/>
    <path id="_426226968" class="fil30" d="M4.21818 6.62459l0.0383661 -0.330217 0.705071 0.0450079c-0.232736,0.123394 -0.481902,0.219866 -0.743437,0.285209z"/>
    <path id="_426226944" class="fil31" d="M3.91741 0.141461l-1.12356 0.0199921c0.200701,-0.0380039 0.407724,-0.0581299 0.61948,-0.0581299 0.171378,0 0.339717,0.0130236 0.504075,0.0381378z"/>
    <path id="_426226992" class="fil1" d="M4.74471 0.382244l-2.17686 -0.169772c0.0743386,-0.0195827 0.149724,-0.0365591 0.226004,-0.0510197l1.12356 -0.0199921c0.289854,0.0443583 0.567295,0.126409 0.827303,0.240783z"/>
    <path id="_426227208" class="fil32" d="M5.99155 4.22586l0.242591 -2.54489c0.303323,0.492846 0.480976,1.07119 0.488665,1.69052l-0.731256 0.854366z"/>
    <path id="_426226080" class="fil33" d="M5.99155 4.22586l0.731256 -0.854366c0.000173228,0.0139488 0.000531496,0.0278504 0.000531496,0.0418386 0,0.224063 -0.0223937,0.442878 -0.0648268,0.654449l-0.666961 0.158079z"/>
    <path id="_426225912" class="fil20" d="M6.08807 5.36317l-0.0965157 -1.13731 0.488394 0.434945c-0.102236,0.250945 -0.234283,0.486547 -0.391878,0.702362z"/>
    <path id="_426226608" class="fil19" d="M6.47994 4.6608l-0.488394 -0.434945 0.666961 -0.158079c-0.0412087,0.205161 -0.10137,0.403457 -0.178567,0.593024z"/>
   </g>
   <path id="_426226320" class="fil34" d="M3.41333 0c0.942551,0 1.79589,0.382055 2.41358,0.999752 0.617697,0.617693 0.999752,1.47103 0.999752,2.41358 0,0.942551 -0.382055,1.79589 -0.999752,2.41358 -0.617693,0.617697 -1.47103,0.999752 -2.41358,0.999752 -0.942551,0 -1.79589,-0.382055 -2.41358,-0.999752 -0.617697,-0.617693 -0.999752,-1.47103 -0.999752,-2.41358 0,-0.942551 0.382055,-1.79589 0.999752,-2.41358 0.617693,-0.617697 1.47103,-0.999752 2.41358,-0.999752zm2.26731 1.14602c-0.580248,-0.580248 -1.38187,-0.939146 -2.26731,-0.939146 -0.885445,0 -1.68707,0.358898 -2.26731,0.939146 -0.580248,0.580248 -0.939146,1.38187 -0.939146,2.26731 0,0.885445 0.358898,1.68707 0.939146,2.26731 0.580248,0.580248 1.38187,0.939146 2.26731,0.939146 0.885445,0 1.68707,-0.358898 2.26731,-0.939146 0.580248,-0.580248 0.939146,-1.38187 0.939146,-2.26731 0,-0.885445 -0.358898,-1.68707 -0.939146,-2.26731z"/>
  </g>
  <g id="_426257304">
   <path id="_426257592" class="fil35" d="M2.86072 1.41333l1.65017 0 0 0.724354c0,0.0919921 0.0746339,0.166622 0.166618,0.166622l0.708535 0 0 2.18106c0,0.0429567 -0.0351417,0.0781024 -0.0780984,0.0781024l-0.794346 0 -0.804717 -0.426291c-0.0614173,-0.0325354 -0.132913,-0.0390551 -0.199295,-0.0186496 -0.0266102,0.00817717 -0.051622,0.0204882 -0.0741496,0.0363583l-0.63111 -0.334323c0.00622441,-0.00147244 0.0124252,-0.00315354 0.0185866,-0.00504724 0.0719488,-0.0221181 0.131539,-0.0710551 0.170724,-0.134996 0.00867323,-0.0141535 0.0035,-0.00490551 0.0102953,-0.0189055 0.016252,-0.0334764 0.0327874,-0.0677362 0.0509094,-0.100256 0.00491732,-0.00883071 0.0107323,-0.0173268 0.0154567,-0.0260906 0.00556693,-0.0103268 0.0090315,-0.0208976 0.0126614,-0.0319764 0.0192717,-0.0588504 0.019622,-0.12222 0.00143701,-0.181378 -0.0208189,-0.0677244 -0.0647323,-0.125866 -0.124339,-0.164217 -0.00689764,-0.00443701 -0.0499882,-0.0272283 -0.177437,-0.0948386l0 -1.57143c0,-0.0429567 0.0351457,-0.0780984 0.0781024,-0.0780984zm0.442949 3.15014l-0.442949 0c-0.0429567,0 -0.0781024,-0.0351457 -0.0781024,-0.0781024l0 -0.29963 0.496969 0.263264c-0.000464567,0.027563 0.0034252,0.0551772 0.0116063,0.0817874 0.00345276,0.0112283 0.00762992,0.0221378 0.0124764,0.0326811zm-0.0723701 -2.26961c-0.0345079,0 -0.0624803,0.0279764 -0.0624803,0.0624843 0,0.0345039 0.0279724,0.0624803 0.0624803,0.0624803l0.808087 0c0.0345079,0 0.0624843,-0.0279764 0.0624843,-0.0624803 0,-0.0345079 -0.0279764,-0.0624843 -0.0624843,-0.0624843l-0.808087 0zm0 0.494382c-0.0345079,0 -0.0624803,0.0279764 -0.0624803,0.0624843 0,0.0345079 0.0279724,0.0624803 0.0624803,0.0624803l1.71053 0c0.0345079,0 0.0624803,-0.0279724 0.0624803,-0.0624803 0,-0.0345079 -0.0279724,-0.0624843 -0.0624803,-0.0624843l-1.71053 0zm0 0.494378c-0.0345079,0 -0.0624803,0.0279764 -0.0624803,0.0624843 0,0.0345039 0.0279724,0.0624803 0.0624803,0.0624803l1.71053 0c0.0345079,0 0.0624803,-0.0279764 0.0624803,-0.0624803 0,-0.0345079 -0.0279724,-0.0624843 -0.0624803,-0.0624843l-1.71053 0zm0 0.494382c-0.0345079,0 -0.0624803,0.0279764 -0.0624803,0.0624843 0,0.0345079 0.0279724,0.0624803 0.0624803,0.0624803l1.71053 0c0.0345079,0 0.0624803,-0.0279724 0.0624803,-0.0624803 0,-0.0345079 -0.0279724,-0.0624843 -0.0624803,-0.0624843l-1.71053 0z"/>
   <path id="_426257544" class="fil34" d="M2.2871 3.34883l0.344461 0.182472 -0.0387283 0.0735472 0.039 -0.0736181c0.0406575,0.0215354 0.0561575,0.0719606 0.034622,0.112618 -0.00088189,0.00166535 -0.00182283,0.00328346 -0.00279528,0.0048622l-0.259264 0.489417 -0.0735472 -0.0387244 0.073622 0.039c-0.0215394,0.0406535 -0.0719646,0.0561575 -0.112618,0.0346181 -0.00166929,-0.00088189 -0.0032874,-0.0018189 -0.00486614,-0.00279528l-0.344461 -0.182472 0.0387244 -0.0735472 -0.0389961 0.073622c-0.0406575,-0.0215394 -0.0561575,-0.0719646 -0.034622,-0.112618 0.00088189,-0.00166929 0.0018189,-0.0032874 0.00279528,-0.00486614l0.259264 -0.489417 0.0735472 0.0387244 -0.073622 -0.0389961c0.0215394,-0.0406575 0.0719646,-0.0561575 0.112618,-0.034622 0.00166929,0.00088189 0.00328346,0.0018189 0.00486614,0.00279528z"/>
   <path id="_426257400" class="fil34" d="M2.18367 4.57006l-0.508744 -0.269496c-0.0527835,-0.0279646 -0.0892992,-0.0748622 -0.105598,-0.127882 -0.0162953,-0.0530157 -0.0125,-0.112201 0.0153346,-0.164748l0.0631181 -0.11915c0.0279646,-0.0527795 0.0748622,-0.0892992 0.127882,-0.105594 0.0530157,-0.0162992 0.112205,-0.0125 0.164744,0.0153307l0.503949 0.266961c0.00170866,0.00076378 0.00340157,0.00158661 0.00508268,0.00247244l-9.44882e-005 0.000173228c0.0526772,0.0279724 0.089126,0.0748228 0.105406,0.127776 0.0156575,0.0509449 0.0127559,0.107583 -0.012185,0.158547 -0.000389764,0.000913386 -0.000795276,0.00182283 -0.00122047,0.00273228l-0.000212598 0.000448819c-0.000523622,0.0011063 -0.00107087,0.00220079 -0.00164567,0.0032874l-0.000173228 -8.66142e-005 -0.0630197 0.118965c-0.0279646,0.0527835 -0.0748583,0.0893031 -0.127878,0.105598 -0.0530197,0.0162992 -0.112209,0.0124961 -0.164744,-0.0153346z"/>
   <path id="_426257808" class="fil34" d="M2.39042 2.94901l0.508744 0.2695 -0.0387283 0.0735433 0.000783465 -0.00147244 0.0379449 -0.0720669 0.000181102 9.44882e-005 9.05512e-005 -0.000173228c0.00219685,0.00116142 0.00431496,0.00241339 0.00635827,0.00374016 0.0492165,0.0282874 0.0833622,0.0734449 0.0989685,0.124213 0.0162953,0.0530157 0.0124921,0.112197 -0.0153346,0.164744l-0.0735472 -0.0387244 0.00152362 0.00080315 0.0720197 0.0379252 -9.44882e-005 0.000173228 0.000173228 9.05512e-005c-0.000889764,0.0016811 -0.00183465,0.00331496 -0.00282283,0.00490945l-0.0576969 0.108921c-0.0018189,0.00410236 -0.00395276,0.0080315 -0.00638189,0.0117559 -0.0282953,0.0491732 -0.0734291,0.0832992 -0.124173,0.0988976 -0.0508346,0.015626 -0.107335,0.0127756 -0.158217,-0.0120197 -0.00410236,-0.00172441 -0.00803543,-0.00376378 -0.0117756,-0.00609449l-0.503496 -0.26672c-0.0527835,-0.0279567 -0.0893031,-0.0748622 -0.105598,-0.127878 -0.0162953,-0.0530157 -0.0125,-0.112205 0.0153346,-0.164748l0.0631181 -0.11915c0.0279646,-0.0527835 0.0748622,-0.0893031 0.127882,-0.105598 0.0530157,-0.0162992 0.112205,-0.0125 0.164744,0.0153346z"/>
   <path id="_426257784" class="fil34" d="M3.66988 4.2108l1.37387 0.727787c0.0435512,0.0230709 0.0736732,0.061748 0.0871142,0.105461 0.0134409,0.0437126 0.0103031,0.0925039 -0.0126339,0.135815l-0.0424685 0.0801654c-0.00188976,0.00427953 -0.00412992,0.0083622 -0.00668504,0.0122244 -0.0233976,0.0396969 -0.060185,0.0672559 -0.101449,0.0799449 -0.0413898,0.0127205 -0.0873307,0.0105906 -0.128862,-0.00914961 -0.00425591,-0.00175591 -0.00833465,-0.0038622 -0.0122008,-0.00626772l-1.36863 -0.725012c-0.0435472,-0.0230669 -0.0736732,-0.0617441 -0.0871142,-0.105461 -0.0134409,-0.0437126 -0.0103031,-0.0925 0.0126339,-0.135811l0.0451457 -0.0852244c0.0230748,-0.0435512 0.061748,-0.0736693 0.105461,-0.0871102 0.0437126,-0.0134331 0.0925079,-0.0103031 0.135815,0.0126378z"/>
   <path id="_426258024" class="fil34" d="M2.52538 3.76707c-0.0406181,-0.0213858 -0.0908858,-0.00579921 -0.112272,0.0348189 -0.0213858,0.0406181 -0.00579528,0.0908858 0.0348228,0.112272l0.982661 0.520551c0.0406142,0.0213858 0.0908819,0.00579528 0.112268,-0.0348228 0.0213858,-0.0406142 0.00579921,-0.0908819 -0.0348189,-0.112268l-0.982661 -0.520551z"/>
   <path id="_426257472" class="fil34" d="M2.02627 3.7033c0.0406142,0.0213898 0.0908858,0.00579921 0.112272,-0.0348189 0.0213858,-0.0406142 0.00579528,-0.0908858 -0.0348228,-0.112272l-0.0976142 -0.0517087c-0.0406181,-0.0213858 -0.0908858,-0.00579528 -0.112272,0.0348189 -0.0213858,0.0406181 -0.00579528,0.0908858 0.0348189,0.112272l0.0976181 0.0517087z"/>
   <path id="_426257952" class="fil34" d="M1.51263 5.2467c-0.0460079,0 -0.083311,0.0373031 -0.083311,0.083311 0,0.0460118 0.0373031,0.083311 0.083311,0.083311l1.38307 0c0.0460079,0 0.083311,-0.0372992 0.083311,-0.083311 0,-0.0460079 -0.0373031,-0.083311 -0.083311,-0.083311l-1.38307 0z"/>
   <path id="_426257760" class="fil34" d="M1.89297 4.97823l0.654929 0c0.0509606,0 0.0972323,0.0207874 0.13072,0.0542795 0.0334921,0.0334882 0.0542795,0.0797598 0.0542795,0.13072l0 0.166787c0,0.0460079 -0.0373031,0.083311 -0.083311,0.083311l-0.890858 0c-0.0460079,0 -0.083311,-0.0373031 -0.083311,-0.083311l0 -0.13424c0,-0.0599055 0.0244528,-0.114315 0.0638425,-0.153705 0.0393858,-0.0393898 0.0937913,-0.0638425 0.153709,-0.0638425z"/>
   <path id="_426257688" class="fil34" d="M5.31213 2.221l-0.634626 0c-0.0460079,0 -0.083311,-0.0372992 -0.083311,-0.083311l0 -0.636091 0 -0.000440945c0,-0.0460118 0.0373031,-0.083311 0.083311,-0.083311 0.0232717,0 0.0443031,0.00953937 0.0594173,0.0249213l0.63602 0.63602 7.87402e-006 -7.87402e-006c0.0325315,0.0325354 0.0325315,0.0852874 0,0.117819 -0.0167244,0.0167205 -0.0373937,0.0243661 -0.0608189,0.0244016z"/>
  </g>
 </g>
</svg>
